# xmcd CD database file
#
# Track frame offsets:
#	150
#	12969
#	24859
#	36709
#	47827
#	59611
#	72123
#	83843
#	95459
#	109759
#	121100
#	133648
#	146266
#	157986
#	170689
#	184769
#	197017
#	210751
#	221989
#	235239
#	249104
#
# Disc length: 3510 seconds
#
# Revision: 0
# Processed by: cddbd v1.5.2PL0 Copyright (c) Steve Scherf et al.
# Submitted via: CDex 1.70beta2
#
DISCID=1f0db415
DTITLE=Various Artist - Country #1's - CD1 - (Original Recordings)
DYEAR=2004
DGENRE=Country Classics
TTITLE0=Jim Reeves - Bimbo
TTITLE1=Tennessee Ernie Ford - The shot-gun boogie
TTITLE2=Eddy Arnold - Kentucky Waltz
TTITLE3=Hank Williams and The Drifting Cowboys - Moanin' the blues
TTITLE4=Carl Smith - Hey Joe
TTITLE5=Al Dexter - Guitar polka
TTITLE6=Bob Wills and His Texas Playboys - New Spanish two step
TTITLE7=Red Foley with The Dixie Dons - M-I-S-S-I-S-S-I-P-P-I
TTITLE8=Ernest Tubb - Rainbow at midnight
TTITLE9=Floyd Tillman - They took the stars uot of heaven
TTITLE10=Gene Autry - At mail call today
TTITLE11=Jack Guthrie - Oklahoma Hills
TTITLE12=Jean Shepard and Ferlin Husky - A dear John letter
TTITLE13=Jimmy Wakely - One has my name (The other has my heart)
TTITLE14=Lawrence Welk and His Orchestra with Red Foley - Shame on you
TTITLE15=Marty Robbins - I'll go on alone
TTITLE16=Merle Travis - Divorce me C.O.D.
TTITLE17=Nat King Cole (Trio) - Straighten up an fly right
TTITLE18=Bob Wills an His Texas Playboys - White cross on Okinawa
TTITLE19=The Andrews Sisters and Bing Crosby - Pistol packin' mama
TTITLE20=Louis Jordan and His Tympanny Five - Ration blues
EXTD=YEAR: 2004
EXTT0=
EXTT1=
EXTT2=
EXTT3=
EXTT4=
EXTT5=
EXTT6=
EXTT7=
EXTT8=
EXTT9=
EXTT10=
EXTT11=
EXTT12=
EXTT13=
EXTT14=
EXTT15=
EXTT16=
EXTT17=
EXTT18=
EXTT19=
EXTT20=
PLAYORDER=
